<?xml version="1.0" encoding="utf-8"?>
<!-- Generator: Adobe Illustrator 24.1.3, SVG Export Plug-In . SVG Version: 6.00 Build 0)  -->
<svg version="1.1" id="Capa_1" xmlns="http://www.w3.org/2000/svg" xmlns:xlink="http://www.w3.org/1999/xlink" x="0px" y="0px"
	 viewBox="0 0 512.2 512.2" style="enable-background:new 0 0 512.2 512.2;" xml:space="preserve">
<style type="text/css">
	.st0{fill:url(#SVGID_1_);}
</style>
<linearGradient id="SVGID_1_" gradientUnits="userSpaceOnUse" x1="100.2936" y1="258.5942" x2="407.2289" y2="258.5942">
	<stop  offset="0" style="stop-color:#D500F9"/>
	<stop  offset="1" style="stop-color:#2196F3"/>
</linearGradient>
<path class="st0" d="M381.5,346.2c1.2-13.2-7.8-25.1-20.8-27.5L344.3,296c1-1.8,1.8-3.8,2.3-5.9l15.8-6.3
	c32.7,31.3,67.9-28.2,24.7-41.8l-12.8-25.6c20.8-20.8-6.3-55.1-31.4-39.7l-14.3-11.9c10.1-25.4-23.9-46.5-42.4-26.5l-25.3-6.3
	c-6.2-24.4-42.4-24.6-49-0.3l-33.8,6.8c-20.1-22-55.8,4.4-40.7,30.1L121,190.7c-26.7,4.4-27.9,43.9-1.5,49.9l13.7,33.8
	c-27.8,31.2,25.5,65.2,42,26.7H221c3.8,11.8,15.8,18.9,27.9,16.7l28.3,43.1c-26.8,34.7,33.3,64,44.1,21.5l21.1-16.9
	C358,375.8,380.2,364.7,381.5,346.2z M356,335.3c11.1-0.2,11.1,17.2,0,17.1C344.9,352.5,344.9,335.1,356,335.3z M381.6,258.5
	c9.7-0.3,11.7,14.4,2.3,16.8C371.6,278.4,368.8,258.8,381.6,258.5z M347.6,197c1.8-9.8,17.1-8.3,16.9,1.7
	C364.3,211.1,345.3,209.1,347.6,197z M355,224.3c1.4,0.2,2.7,0,4.1-0.2l10.3,20.6c-8.4,4.6-13.9,13.7-13.3,23.4l-11.5,4.6
	c-1.5-2.9-3.5-5.5-5.9-7.7L355,224.3z M339.1,217.9l-15.8,39.4l-27.6-22.1c3.8-3.2,6.5-7.4,7.9-12.1l33.8-6.8
	C338,216.9,338.5,217.4,339.1,217.9z M330,286.4c-2.4,9.4-17,7.4-16.7-2.3C313.6,271.4,333.2,274.1,330,286.4z M304.8,147.6
	c11.1-0.2,11.1,17.2,0,17.1C293.7,164.8,293.7,147.4,304.8,147.6z M259.9,149.4l19.5,4.9c-2.3,20,21.6,34.6,38.4,23.8l14.3,11.9
	c-1.2,3.3-2,6.9-1.5,10.4l-27.8,5.6c-3.5-8.1-10.9-13.9-19.6-15.2l-31.2-31.2C255.3,156.8,258.1,153.3,259.9,149.4z M287.7,215.8
	c0.2,11.1-17.2,11.1-17.1,0C270.5,204.8,287.9,204.8,287.7,215.8z M236.5,130.5c11.1-0.2,11.1,17.2,0,17.1
	C225.4,147.7,225.4,130.3,236.5,130.5z M238.2,169.9l25.6,25.6c-4,3-7,7.1-8.7,11.8h-20.2c-2-5.7-6-10.4-11.1-13.5L238.2,169.9z
	 M185.2,154.6L213,149c2.2,5,5.9,9.2,10.7,12l-15.5,25.8l-26.8-17.2C184.1,165.2,185.7,159.8,185.2,154.6z M219.4,215.8
	c0.2,11.1-17.2,11.1-17.1,0C202.2,204.8,219.6,204.8,219.4,215.8z M159.7,147.6c11.1-0.2,11.1,17.2,0,17.1
	C148.6,164.8,148.6,147.4,159.7,147.6z M150.4,179.9c5.2,2.1,11,2.4,16.3,0.7l26.3,16.9c-2.8,2.7-4.9,6.1-6.2,9.8h-37.3
	c-1.9-5.3-5.4-9.8-10.1-12.9L150.4,179.9z M125.6,224.4c-11.1,0.2-11.1-17.2,0-17.1C136.6,207.1,136.6,224.5,125.6,224.4z
	 M151.2,301.2c-11.1,0.2-11.1-17.2,0-17.1C162.3,283.9,162.2,301.3,151.2,301.2z M156,267.5c-2.4-0.5-4.9-0.7-7.3-0.2l-11.6-28.7
	c5.8-3,10.3-8,12.5-14.2h37.3c1.5,4.3,4.2,8.1,7.7,11L156,267.5z M221,284.1h-45.8c-0.9-2.6-2.2-5-3.9-7.1l41.9-34.9l14.3,32
	C224.6,276.9,222.4,280.3,221,284.1z M234.9,224.4h20.2c2,5.7,6,10.4,11.1,13.5l-17.7,29.6c-1.8-0.3-3.6-0.5-5.4-0.2l-14.6-32.9
	C231.4,231.6,233.6,228.2,234.9,224.4z M245,301.2c-11.1,0.2-11.1-17.2,0-17.1C256.1,283.9,256.1,301.3,245,301.2z M281.5,245.7
	l23.8,19.1c-3.7,3.2-6.5,7.4-7.9,12.1l-28.8,5.8c-1.2-2.7-2.8-5.2-4.9-7.4L281.5,245.7z M296.2,386.5c-11.1,0.2-11.1-17.2,0-17.1
	C307.3,369.3,307.3,386.6,296.2,386.5z M330.4,343.8c0,2.9,0.5,5.7,1.5,8.4l-14.4,11.5c-5.4-8.4-15.3-12.7-25.2-10.9L264,309.7
	c2.5-2.8,4.4-6.2,5.5-9.8l28.8-5.8c5.5,13,20.4,19.1,33.4,13.6l10.5,14.6C334.9,327,330.4,335.1,330.4,343.8z"/>
</svg>
